<svg width="1485" height="893" xmlns="http://www.w3.org/2000/svg" xmlns:xlink="http://www.w3.org/1999/xlink" xml:space="preserve" overflow="hidden"><g transform="translate(-403 -1430)"><g><rect x="935.5" y="1537.5" width="68.0001" height="68.0001" stroke="#320000" stroke-width="4.58333" stroke-linecap="butt" stroke-linejoin="miter" stroke-miterlimit="8" stroke-opacity="1" fill="#FFE191" fill-opacity="1"/><rect x="1013.5" y="1537.5" width="69.0001" height="68.0001" stroke="#320000" stroke-width="4.58333" stroke-linecap="butt" stroke-linejoin="miter" stroke-miterlimit="8" stroke-opacity="1" fill="#CACACA" fill-opacity="1"/><rect x="1092.5" y="1537.5" width="69.0001" height="68.0001" stroke="#320000" stroke-width="4.58333" stroke-linecap="butt" stroke-linejoin="miter" stroke-miterlimit="8" stroke-opacity="1" fill="#E1C3BB" fill-opacity="1"/><rect x="1173.5" y="1537.5" width="68.0001" height="68.0001" stroke="#320000" stroke-width="4.58333" stroke-linecap="butt" stroke-linejoin="miter" stroke-miterlimit="8" stroke-opacity="1" fill="#8EE0FF" fill-opacity="1"/><rect x="1253.5" y="1537.5" width="68.9998" height="68.0001" stroke="#320000" stroke-width="4.58333" stroke-linecap="butt" stroke-linejoin="miter" stroke-miterlimit="8" stroke-opacity="1" fill="#FFF0C8" fill-opacity="1"/><rect x="1332.5" y="1537.5" width="69.0001" height="68.0001" stroke="#320000" stroke-width="4.58333" stroke-linecap="butt" stroke-linejoin="miter" stroke-miterlimit="8" stroke-opacity="1" fill="#007CAB" fill-opacity="1"/><rect x="1411.5" y="1537.5" width="68.0001" height="68.0001" stroke="#320000" stroke-width="4.58333" stroke-linecap="butt" stroke-linejoin="miter" stroke-miterlimit="8" stroke-opacity="1" fill="#600000" fill-opacity="1"/><rect x="1491.5" y="1537.5" width="69.0001" height="68.0001" stroke="#320000" stroke-width="4.58333" stroke-linecap="butt" stroke-linejoin="miter" stroke-miterlimit="8" stroke-opacity="1" fill="#A3A3A3" fill-opacity="1"/><rect x="1570.5" y="1537.5" width="68.0001" height="68.0001" stroke="#320000" stroke-width="4.58333" stroke-linecap="butt" stroke-linejoin="miter" stroke-miterlimit="8" stroke-opacity="1" fill="#894D3D" fill-opacity="1"/><rect x="1648.5" y="1537.5" width="68.9998" height="68.0001" stroke="#320000" stroke-width="4.58333" stroke-linecap="butt" stroke-linejoin="miter" stroke-miterlimit="8" stroke-opacity="1" fill="#FF6666" fill-opacity="1"/><rect x="1727.5" y="1537.5" width="69.0001" height="68.0001" stroke="#320000" stroke-width="4.58333" stroke-linecap="butt" stroke-linejoin="miter" stroke-miterlimit="8" stroke-opacity="1" fill="#F0E1DD" fill-opacity="1"/><rect x="1808.5" y="1537.5" width="68.0001" height="68.0001" stroke="#320000" stroke-width="4.58333" stroke-linecap="butt" stroke-linejoin="miter" stroke-miterlimit="8" stroke-opacity="1" fill="#C7C7C7" fill-opacity="1"/><rect x="934.5" y="1619.5" width="67.9997" height="69.0001" stroke="#320000" stroke-width="4.58333" stroke-linecap="butt" stroke-linejoin="miter" stroke-miterlimit="8" stroke-opacity="1" fill="#FF6666" fill-opacity="1"/><rect x="1012.5" y="1619.5" width="69.0001" height="69.0001" stroke="#320000" stroke-width="4.58333" stroke-linecap="butt" stroke-linejoin="miter" stroke-miterlimit="8" stroke-opacity="1" fill="#DBDBDB" fill-opacity="1"/><rect x="1093.5" y="1619.5" width="69.0001" height="69.0001" stroke="#320000" stroke-width="4.58333" stroke-linecap="butt" stroke-linejoin="miter" stroke-miterlimit="8" stroke-opacity="1" fill="#B07F00" fill-opacity="1"/><rect x="1329.5" y="1623.5" width="68.9998" height="69.0001" stroke="#320000" stroke-width="4.58333" stroke-linecap="butt" stroke-linejoin="miter" stroke-miterlimit="8" stroke-opacity="1" fill="#FFE191" fill-opacity="1"/><rect x="1408.5" y="1623.5" width="68.0001" height="69.0001" stroke="#320000" stroke-width="4.58333" stroke-linecap="butt" stroke-linejoin="miter" stroke-miterlimit="8" stroke-opacity="1" fill="#CACACA" fill-opacity="1"/><rect x="1486.5" y="1623.5" width="69.0001" height="69.0001" stroke="#320000" stroke-width="4.58333" stroke-linecap="butt" stroke-linejoin="miter" stroke-miterlimit="8" stroke-opacity="1" fill="#E1C3BB" fill-opacity="1"/><rect x="1567.5" y="1623.5" width="69.0001" height="69.0001" stroke="#320000" stroke-width="4.58333" stroke-linecap="butt" stroke-linejoin="miter" stroke-miterlimit="8" stroke-opacity="1" fill="#8EE0FF" fill-opacity="1"/><rect x="1648.5" y="1623.5" width="67.9998" height="69.0001" stroke="#320000" stroke-width="4.58333" stroke-linecap="butt" stroke-linejoin="miter" stroke-miterlimit="8" stroke-opacity="1" fill="#FFF0C8" fill-opacity="1"/><rect x="1726.5" y="1623.5" width="68.9998" height="69.0001" stroke="#320000" stroke-width="4.58333" stroke-linecap="butt" stroke-linejoin="miter" stroke-miterlimit="8" stroke-opacity="1" fill="#007CAB" fill-opacity="1"/><rect x="1805.5" y="1623.5" width="68.0001" height="69.0001" stroke="#320000" stroke-width="4.58333" stroke-linecap="butt" stroke-linejoin="miter" stroke-miterlimit="8" stroke-opacity="1" fill="#600000" fill-opacity="1"/><rect x="934.5" y="1702.5" width="67.9997" height="68.0001" stroke="#320000" stroke-width="4.58333" stroke-linecap="butt" stroke-linejoin="miter" stroke-miterlimit="8" stroke-opacity="1" fill="#FF6666" fill-opacity="1"/><rect x="1012.5" y="1702.5" width="69.0001" height="68.0001" stroke="#320000" stroke-width="4.58333" stroke-linecap="butt" stroke-linejoin="miter" stroke-miterlimit="8" stroke-opacity="1" fill="#F0E1DD" fill-opacity="1"/><rect x="1093.5" y="1702.5" width="69.0001" height="68.0001" stroke="#320000" stroke-width="4.58333" stroke-linecap="butt" stroke-linejoin="miter" stroke-miterlimit="8" stroke-opacity="1" fill="#C7C7C7" fill-opacity="1"/><rect x="1173.5" y="1702.5" width="68.0001" height="68.0001" stroke="#320000" stroke-width="4.58333" stroke-linecap="butt" stroke-linejoin="miter" stroke-miterlimit="8" stroke-opacity="1" fill="#D2F3FF" fill-opacity="1"/><rect x="1251.5" y="1702.5" width="68.9998" height="68.0001" stroke="#320000" stroke-width="4.58333" stroke-linecap="butt" stroke-linejoin="miter" stroke-miterlimit="8" stroke-opacity="1" fill="#FF6666" fill-opacity="1"/><rect x="1330.5" y="1702.5" width="67.9998" height="68.0001" stroke="#320000" stroke-width="4.58333" stroke-linecap="butt" stroke-linejoin="miter" stroke-miterlimit="8" stroke-opacity="1" fill="#DBDBDB" fill-opacity="1"/><rect x="1411.5" y="1702.5" width="68.0001" height="68.0001" stroke="#320000" stroke-width="4.58333" stroke-linecap="butt" stroke-linejoin="miter" stroke-miterlimit="8" stroke-opacity="1" fill="#B07F00" fill-opacity="1"/><path d="M929 1530 1882.06 1530" stroke="#EAAA00" stroke-width="10.3125" stroke-linecap="butt" stroke-linejoin="miter" stroke-miterlimit="8" stroke-opacity="1" fill="none" fill-rule="evenodd"/><path d="M929 1530 929.001 1694.93" stroke="#EAAA00" stroke-width="10.3125" stroke-linecap="butt" stroke-linejoin="miter" stroke-miterlimit="8" stroke-opacity="1" fill="none" fill-rule="evenodd"/><path d="M927 1693 1329.42 1694.73" stroke="#EAAA00" stroke-width="10.3125" stroke-linecap="butt" stroke-linejoin="miter" stroke-miterlimit="8" stroke-opacity="1" fill="none" fill-rule="evenodd"/><path d="M1168 1612 1168.15 1690.99" stroke="#EAAA00" stroke-width="10.3125" stroke-linecap="butt" stroke-linejoin="miter" stroke-miterlimit="8" stroke-opacity="1" fill="none" fill-rule="evenodd"/><path d="M1162 1612 1881.95 1612" stroke="#EAAA00" stroke-width="10.3125" stroke-linecap="butt" stroke-linejoin="miter" stroke-miterlimit="8" stroke-opacity="1" fill="none" fill-rule="evenodd"/><path d="M1882 1530 1882.66 1612.47" stroke="#EAAA00" stroke-width="10.3125" stroke-linecap="butt" stroke-linejoin="miter" stroke-miterlimit="8" stroke-opacity="1" fill="none" fill-rule="evenodd"/><rect x="1491.5" y="1702.5" width="69.0001" height="68.0001" stroke="#320000" stroke-width="4.58333" stroke-linecap="butt" stroke-linejoin="miter" stroke-miterlimit="8" stroke-opacity="1" fill="#EDEDED" fill-opacity="1"/><rect x="1570.5" y="1702.5" width="68.0001" height="68.0001" stroke="#320000" stroke-width="4.58333" stroke-linecap="butt" stroke-linejoin="miter" stroke-miterlimit="8" stroke-opacity="1" fill="#EDEDED" fill-opacity="1"/><path d="M927 1770 1484.76 1770" stroke="#EAAA00" stroke-width="10.3125" stroke-linecap="butt" stroke-linejoin="miter" stroke-miterlimit="8" stroke-opacity="1" fill="none" fill-rule="evenodd"/><path d="M0 0 0.000360892 75.5193" stroke="#EAAA00" stroke-width="10.3125" stroke-linecap="butt" stroke-linejoin="miter" stroke-miterlimit="8" stroke-opacity="1" fill="none" fill-rule="evenodd" transform="matrix(1 0 0 -1 1484 1770.52)"/><path d="M0 0 0.000360892 82.4603" stroke="#EAAA00" stroke-width="10.3125" stroke-linecap="butt" stroke-linejoin="miter" stroke-miterlimit="8" stroke-opacity="1" fill="none" fill-rule="evenodd" transform="matrix(1 0 0 -1 1882 1694.46)"/><path d="M0 0 0.000360892 75.5193" stroke="#EAAA00" stroke-width="10.3125" stroke-linecap="butt" stroke-linejoin="miter" stroke-miterlimit="8" stroke-opacity="1" fill="none" fill-rule="evenodd" transform="matrix(1 0 0 -1 930 1770.52)"/><path d="M1479 1695 1881.71 1695" stroke="#EAAA00" stroke-width="10.3125" stroke-linecap="butt" stroke-linejoin="miter" stroke-miterlimit="8" stroke-opacity="1" fill="none" fill-rule="evenodd"/><rect x="927.5" y="1960.5" width="68.0001" height="68.0001" stroke="#320000" stroke-width="4.58333" stroke-linecap="butt" stroke-linejoin="miter" stroke-miterlimit="8" stroke-opacity="1" fill="#FFE191" fill-opacity="1"/><path d="M1044 1988.99 1137.65 1988.99 1137.65 1997.01 1044 1997.01ZM1044 2002.17C1038.94 2002.17 1034.83 1998.06 1034.83 1993 1034.83 1987.94 1038.94 1983.83 1044 1983.83 1049.06 1983.83 1053.17 1987.94 1053.17 1993 1053.17 1998.06 1049.06 2002.17 1044 2002.17ZM1133.06 1979.25 1151.4 1993 1133.06 2006.75Z" fill="#800000" fill-rule="nonzero" fill-opacity="1"/><rect x="1178.5" y="1959.5" width="68.0001" height="68.0001" stroke="#320000" stroke-width="4.58333" stroke-linecap="butt" stroke-linejoin="miter" stroke-miterlimit="8" stroke-opacity="1" fill="#FFFFFF" fill-opacity="1"/><text fill="#000000" fill-opacity="1" font-family="Gotham Medium,Gotham Medium_MSFontService,sans-serif" font-style="normal" font-variant="normal" font-weight="300" font-stretch="normal" font-size="64" text-anchor="start" direction="ltr" writing-mode="lr-tb" unicode-bidi="normal" text-decoration="none" transform="matrix(1 0 0 1 1194.51 2016)">?</text><text fill="#000000" fill-opacity="1" font-family="Gotham Light,Gotham Light_MSFontService,sans-serif" font-style="normal" font-variant="normal" font-weight="300" font-stretch="normal" font-size="50" text-anchor="start" direction="ltr" writing-mode="lr-tb" unicode-bidi="normal" text-decoration="none" transform="matrix(1 0 0 1 938.601 1497)">packing strategy</text><text fill="#000000" fill-opacity="1" font-family="Gotham Light,Gotham Light_MSFontService,sans-serif" font-style="normal" font-variant="normal" font-weight="300" font-stretch="normal" font-size="50" text-anchor="start" direction="ltr" writing-mode="lr-tb" unicode-bidi="normal" text-decoration="none" transform="matrix(1 0 0 1 932.585 1935)">self</text><text fill="#000000" fill-opacity="1" font-family="Gotham Light,Gotham Light_MSFontService,sans-serif" font-style="normal" font-variant="normal" font-weight="300" font-stretch="normal" font-size="50" text-anchor="start" direction="ltr" writing-mode="lr-tb" unicode-bidi="normal" text-decoration="none" transform="matrix(1 0 0 1 1017.95 1935)">-</text><text fill="#000000" fill-opacity="1" font-family="Gotham Light,Gotham Light_MSFontService,sans-serif" font-style="normal" font-variant="normal" font-weight="300" font-stretch="normal" font-size="50" text-anchor="start" direction="ltr" writing-mode="lr-tb" unicode-bidi="normal" text-decoration="none" transform="matrix(1 0 0 1 1038.57 1935)">supervised next token objective</text><path d="M902 1695C887.917 1695 876.5 1683.84 876.5 1670.07L876.5 1640.93C876.5 1627.16 865.083 1616 851 1616 865.083 1616 876.5 1604.84 876.5 1591.07L876.5 1561.93C876.5 1548.16 887.917 1537 902 1537" stroke="#800000" stroke-width="2.29167" stroke-linecap="butt" stroke-linejoin="miter" stroke-miterlimit="8" stroke-opacity="1" fill="none" fill-rule="evenodd"/><text fill="#000000" fill-opacity="1" font-family="Gotham Light,Gotham Light_MSFontService,sans-serif" font-style="normal" font-variant="normal" font-weight="300" font-stretch="normal" font-size="50" text-anchor="start" direction="ltr" writing-mode="lr-tb" unicode-bidi="normal" text-decoration="none" transform="matrix(1 0 0 1 470.287 1615)">tokenized seq. </text><text fill="#000000" fill-opacity="1" font-family="Gotham Light,Gotham Light_MSFontService,sans-serif" font-style="normal" font-variant="normal" font-weight="300" font-stretch="normal" font-size="50" text-anchor="start" direction="ltr" writing-mode="lr-tb" unicode-bidi="normal" text-decoration="none" transform="matrix(1 0 0 1 520.131 1676)">continues to </text><text fill="#000000" fill-opacity="1" font-family="Gotham Light,Gotham Light_MSFontService,sans-serif" font-style="normal" font-variant="normal" font-weight="300" font-stretch="normal" font-size="50" text-anchor="start" direction="ltr" writing-mode="lr-tb" unicode-bidi="normal" text-decoration="none" transform="matrix(1 0 0 1 618.673 1736)">next line</text><rect x="927.5" y="2043.5" width="68.0001" height="68.0001" stroke="#320000" stroke-width="4.58333" stroke-linecap="butt" stroke-linejoin="miter" stroke-miterlimit="8" stroke-opacity="1" fill="#FFE191" fill-opacity="1"/><rect x="1005.5" y="2043.5" width="69.0001" height="68.0001" stroke="#320000" stroke-width="4.58333" stroke-linecap="butt" stroke-linejoin="miter" stroke-miterlimit="8" stroke-opacity="1" fill="#CACACA" fill-opacity="1"/><rect x="926.5" y="2126.5" width="69.0001" height="68" stroke="#320000" stroke-width="4.58333" stroke-linecap="butt" stroke-linejoin="miter" stroke-miterlimit="8" stroke-opacity="1" fill="#FFE191" fill-opacity="1"/><rect x="1005.5" y="2126.5" width="69.0001" height="68" stroke="#320000" stroke-width="4.58333" stroke-linecap="butt" stroke-linejoin="miter" stroke-miterlimit="8" stroke-opacity="1" fill="#CACACA" fill-opacity="1"/><rect x="1084.5" y="2126.5" width="68.0001" height="68" stroke="#320000" stroke-width="4.58333" stroke-linecap="butt" stroke-linejoin="miter" stroke-miterlimit="8" stroke-opacity="1" fill="#E1C3BB" fill-opacity="1"/><rect x="926.5" y="2210.5" width="69.0001" height="67.9998" stroke="#320000" stroke-width="4.58333" stroke-linecap="butt" stroke-linejoin="miter" stroke-miterlimit="8" stroke-opacity="1" fill="#FFE191" fill-opacity="1"/><rect x="1005.5" y="2210.5" width="69.0001" height="67.9998" stroke="#320000" stroke-width="4.58333" stroke-linecap="butt" stroke-linejoin="miter" stroke-miterlimit="8" stroke-opacity="1" fill="#CACACA" fill-opacity="1"/><rect x="1084.5" y="2210.5" width="68.0001" height="67.9998" stroke="#320000" stroke-width="4.58333" stroke-linecap="butt" stroke-linejoin="miter" stroke-miterlimit="8" stroke-opacity="1" fill="#E1C3BB" fill-opacity="1"/><rect x="1164.5" y="2210.5" width="68.9998" height="67.9998" stroke="#320000" stroke-width="4.58333" stroke-linecap="butt" stroke-linejoin="miter" stroke-miterlimit="8" stroke-opacity="1" fill="#8EE0FF" fill-opacity="1"/><path d="M1119 2073.99 1212.65 2073.99 1212.65 2082.01 1119 2082.01ZM1119 2087.17C1113.94 2087.17 1109.83 2083.06 1109.83 2078 1109.83 2072.94 1113.94 2068.83 1119 2068.83 1124.06 2068.83 1128.17 2072.94 1128.17 2078 1128.17 2083.06 1124.06 2087.17 1119 2087.17ZM1208.06 2064.25 1226.4 2078 1208.06 2091.75Z" fill="#800000" fill-rule="nonzero" fill-opacity="1"/><rect x="1253.5" y="2044.5" width="68.9998" height="68.9996" stroke="#320000" stroke-width="4.58333" stroke-linecap="butt" stroke-linejoin="miter" stroke-miterlimit="8" stroke-opacity="1" fill="#FFFFFF" fill-opacity="1"/><text fill="#000000" fill-opacity="1" font-family="Gotham Medium,Gotham Medium_MSFontService,sans-serif" font-style="normal" font-variant="normal" font-weight="300" font-stretch="normal" font-size="64" text-anchor="start" direction="ltr" writing-mode="lr-tb" unicode-bidi="normal" text-decoration="none" transform="matrix(1 0 0 1 1269.86 2102)">?</text><path d="M1198 2152.99 1291.65 2152.99 1291.65 2161.01 1198 2161.01ZM1198 2166.17C1192.94 2166.17 1188.83 2162.06 1188.83 2157 1188.83 2151.94 1192.94 2147.83 1198 2147.83 1203.06 2147.83 1207.17 2151.94 1207.17 2157 1207.17 2162.06 1203.06 2166.17 1198 2166.17ZM1287.06 2143.25 1305.4 2157 1287.06 2170.75Z" fill="#800000" fill-rule="nonzero" fill-opacity="1"/><rect x="1332.5" y="2123.5" width="68.0001" height="68" stroke="#320000" stroke-width="4.58333" stroke-linecap="butt" stroke-linejoin="miter" stroke-miterlimit="8" stroke-opacity="1" fill="#FFFFFF" fill-opacity="1"/><text fill="#000000" fill-opacity="1" font-family="Gotham Medium,Gotham Medium_MSFontService,sans-serif" font-style="normal" font-variant="normal" font-weight="300" font-stretch="normal" font-size="64" text-anchor="start" direction="ltr" writing-mode="lr-tb" unicode-bidi="normal" text-decoration="none" transform="matrix(1 0 0 1 1348.45 2180)">?</text><path d="M1266 2240.99 1359.65 2240.99 1359.65 2249.01 1266 2249.01ZM1266 2254.17C1260.94 2254.17 1256.83 2250.06 1256.83 2245 1256.83 2239.94 1260.94 2235.83 1266 2235.83 1271.06 2235.83 1275.17 2239.94 1275.17 2245 1275.17 2250.06 1271.06 2254.17 1266 2254.17ZM1355.06 2231.25 1373.4 2245 1355.06 2258.75Z" fill="#800000" fill-rule="nonzero" fill-opacity="1"/><rect x="1400.5" y="2211.5" width="68.0001" height="69" stroke="#320000" stroke-width="4.58333" stroke-linecap="butt" stroke-linejoin="miter" stroke-miterlimit="8" stroke-opacity="1" fill="#FFFFFF" fill-opacity="1"/><text fill="#000000" fill-opacity="1" font-family="Gotham Medium,Gotham Medium_MSFontService,sans-serif" font-style="normal" font-variant="normal" font-weight="300" font-stretch="normal" font-size="64" text-anchor="start" direction="ltr" writing-mode="lr-tb" unicode-bidi="normal" text-decoration="none" transform="matrix(1 0 0 1 1416.73 2269)">?</text><rect x="1173.5" y="1621.5" width="68.0001" height="69.0001" stroke="#320000" stroke-width="4.58333" stroke-linecap="butt" stroke-linejoin="miter" stroke-miterlimit="8" stroke-opacity="1" fill="#EDEDED" fill-opacity="1"/><rect x="1251.5" y="1621.5" width="68.9998" height="69.0001" stroke="#320000" stroke-width="4.58333" stroke-linecap="butt" stroke-linejoin="miter" stroke-miterlimit="8" stroke-opacity="1" fill="#EDEDED" fill-opacity="1"/><path d="M0 0 0.000360892 75.5193" stroke="#EAAA00" stroke-width="10.3125" stroke-linecap="butt" stroke-linejoin="miter" stroke-miterlimit="8" stroke-opacity="1" fill="none" fill-rule="evenodd" transform="matrix(1 0 0 -1 1166 1689.52)"/><path d="M0 0 0.000360892 75.5193" stroke="#EAAA00" stroke-width="10.3125" stroke-linecap="butt" stroke-linejoin="miter" stroke-miterlimit="8" stroke-opacity="1" fill="none" fill-rule="evenodd" transform="matrix(1 0 0 -1 1323 1691.52)"/><rect x="1651.5" y="1702.5" width="68.0001" height="68.9998" stroke="#320000" stroke-width="4.58333" stroke-linecap="butt" stroke-linejoin="miter" stroke-miterlimit="8" stroke-opacity="1" fill="#FFE191" fill-opacity="1"/><rect x="1729.5" y="1702.5" width="69.0001" height="68.9998" stroke="#320000" stroke-width="4.58333" stroke-linecap="butt" stroke-linejoin="miter" stroke-miterlimit="8" stroke-opacity="1" fill="#CACACA" fill-opacity="1"/><rect x="1808.5" y="1702.5" width="68.0001" height="68.9998" stroke="#320000" stroke-width="4.58333" stroke-linecap="butt" stroke-linejoin="miter" stroke-miterlimit="8" stroke-opacity="1" fill="#E1C3BB" fill-opacity="1"/></g></g></svg>